<?xml version="1.0" ?><svg style="enable-background:new 0 0 48 48;" version="1.1" viewBox="0 0 48 48" xml:space="preserve" xmlns="http://www.w3.org/2000/svg" xmlns:xlink="http://www.w3.org/1999/xlink"><g id="Icons"><g id="Icons_7_"><g><linearGradient gradientTransform="matrix(1 0 0 -1 0 50)" gradientUnits="userSpaceOnUse" id="SVGID_1_" x1="24" x2="24" y1="11.45732" y2="42.49535"><stop offset="0.09694" style="stop-color:#FFD879"/><stop offset="0.15387" style="stop-color:#FCCB76"/><stop offset="0.25828" style="stop-color:#F5AA6C"/><stop offset="0.39756" style="stop-color:#E9755E"/><stop offset="0.44898" style="stop-color:#E45F58"/><stop offset="0.67857" style="stop-color:#D22A9C"/><stop offset="1" style="stop-color:#6968DF"/></linearGradient><path d="M34.9524,37.47675H13.0477c-1.3942,0-2.5245-1.1302-2.5245-2.5244v-21.9047     c0-1.3942,1.1303-2.5244,2.5245-2.5244h21.9047c1.3942,0,2.5244,1.1302,2.5244,2.5244v21.9047     C37.4768,36.34655,36.3466,37.47675,34.9524,37.47675z" style="fill:url(#SVGID_1_);"/><g><path d="M23.9999,27.71545c-2.0489,0-3.7154-1.667-3.7154-3.7158c0-2.0489,1.6665-3.7149,3.7154-3.7149      c2.0488,0,3.7158,1.666,3.7158,3.7149C27.7157,26.04845,26.0487,27.71545,23.9999,27.71545z M23.9999,21.28475      c-1.4971,0-2.7154,1.2178-2.7154,2.7149c0,1.497,1.2183,2.7158,2.7154,2.7158c1.4975,0,2.7158-1.2188,2.7158-2.7158      C26.7157,22.50255,25.4974,21.28475,23.9999,21.28475z" style="fill:#FFFFFF;"/></g><circle cx="28.2478" cy="19.89085" r="0.4621" style="fill:#FFFFFF;"/><g><path d="M27.1976,31.26425h-6.3955c-2.2427,0-4.0669-1.8242-4.0669-4.0664v-6.3955      c0-2.2432,1.8242-4.0674,4.0669-4.0674h6.3955c2.2427,0,4.0669,1.8242,4.0669,4.0674v6.3955      C31.2645,29.44005,29.4403,31.26425,27.1976,31.26425z M20.8021,17.73495c-1.6909,0-3.0669,1.376-3.0669,3.0674v6.3955      c0,1.6904,1.376,3.0664,3.0669,3.0664h6.3955c1.6909,0,3.0669-1.376,3.0669-3.0664v-6.3955c0-1.6914-1.376-3.0674-3.0669-3.0674      H20.8021z" style="fill:#FFFFFF;"/></g></g></g></g></svg>